<?xml version="1.0" encoding="utf-8"?>
<!DOCTYPE svg PUBLIC "-//W3C//DTD SVG 1.1//EN" "http://www.w3.org/Graphics/SVG/1.1/DTD/svg11.dtd">
<svg version="1.1" xmlns="http://www.w3.org/2000/svg" xmlns:xlink="http://www.w3.org/1999/xlink" x="0px" y="0px" width="132px" height="132px"
	 viewBox="0 0 132 132" enable-background="new 0 0 132 132" xml:space="preserve">
<linearGradient id="gr" gradientUnits="userSpaceOnUse" x1="112.6685" y1="112.6685" x2="19.3317" y2="19.3317">
	<stop  offset="0" style="stop-color:#FC8929"/>
	<stop  offset="0.5" style="stop-color:#FC8929"/>
	<stop  offset="0.5" style="stop-color:#FF7400"/>
	<stop  offset="1" style="stop-color:#FF7400"/>
</linearGradient>
<circle fill="url(#gr)" cx="66" cy="66" r="66"/>
<g>
	<path fill="#FFFFFF" d="M66.115,11C35.78,11,11,35.78,11,66.116C11,96.454,35.78,121,66.115,121C96.452,121,121,96.454,121,66.116
		C121,35.78,96.452,11,66.115,11L66.115,11z M66.115,111.042c-24.777,0-44.926-20.147-44.926-44.927
		c0-24.778,20.149-44.926,44.926-44.926c24.78,0,44.927,20.148,44.927,44.926C111.042,90.895,90.895,111.042,66.115,111.042
		L66.115,111.042z M66.115,111.042"/>
	<path fill="#FFFFFF" d="M72.238,86.147l-4.631,2.085l6.021-30.801c0.695-3.241-2.779-6.716-6.485-4.632l-11.346,6.254
		c-2.084,1.158-2.779,3.937-1.62,6.021c1.158,2.083,3.936,2.778,6.02,1.62l2.779-1.389l-5.79,29.41
		c-0.463,2.548,1.622,5.327,4.4,5.327c0.696,0,1.389-0.23,1.853-0.463l12.273-5.326c2.315-0.926,3.241-3.474,2.315-5.79
		C77.102,86.147,74.555,85.221,72.238,86.147L72.238,86.147z M72.238,86.147"/>
	<path fill="#FFFFFF" d="M69.229,44.463c3.473,0,6.252-2.778,6.252-6.252c0-3.473-2.779-6.253-6.252-6.253
		c-3.475,0-6.254,2.78-6.254,6.253C62.975,41.685,65.754,44.463,69.229,44.463L69.229,44.463z M69.229,44.463"/>
</g>
</svg>
