<?xml version="1.0" encoding="utf-8"?>
<!DOCTYPE svg PUBLIC "-//W3C//DTD SVG 1.1//EN" "http://www.w3.org/Graphics/SVG/1.1/DTD/svg11.dtd">
<svg version="1.1" xmlns="http://www.w3.org/2000/svg" xmlns:xlink="http://www.w3.org/1999/xlink" x="0px" y="0px" width="560px" height="400px"
	 viewBox="0 0 560 400" enable-background="new 0 0 560 400" xml:space="preserve">
<path fill="#FFFFFF" d="M26.667,2.667C32,0,34.667,0,40,0h480c5.333,0,10.667,0,13.333,2.667L320,213.334
	c-21.334,21.332-56,21.332-77.333,0L26.667,2.667z M554.667,378.667c2.666-5.334,5.333-13.334,5.333-21.334V42.667
	c0-5.333,0-10.667-2.667-16L357.333,224L554.667,378.667z M338.666,242.666c-16,16-37.332,21.334-58.666,21.334
	c-21.333,0-42.667-8-58.667-21.334L24,397.333C29.333,400,34.667,400,40,400h480c5.333,0,10.667,0,16-2.667L338.666,242.666z
	 M2.667,26.667C0,32,0,37.333,0,42.667v314.667c0,8,2.667,16,5.333,21.334L202.667,224L2.667,26.667z"/>
</svg>
