<?xml version="1.0" encoding="utf-8"?>
<svg version="1.1" xmlns="http://www.w3.org/2000/svg" xmlns:xlink="http://www.w3.org/1999/xlink" x="0px" y="0px"
	 viewBox="0 0 294.7 51.1" style="enable-background:new 0 0 294.7 51.1;" xml:space="preserve">
<g fill="#ee712f">
	<path d="M38.6,35c-1.8,5.8-4.1,11.1-6.9,15.9h-1.5c-1.3,0-2.2-0.6-3-1.9c-2.6-4.7-4.7-10.4-6.2-17.1
		c-1.6,7.5-4,13.8-7.2,19h-1.4c-1.4,0-2.4-0.6-3.1-1.9c-2.3-4-4.2-8.6-5.9-13.8S0.6,24.8,0,19.8h3.6c1,0,1.8,0.4,2.5,1.1
		c0.7,0.7,1.1,1.5,1.2,2.5c1,6.2,2.7,12.2,5.1,17.9c2.4-5.8,4.4-12.5,5.9-20.2h2c2.7,0,4.3,1.4,4.8,4.1c1.1,5.3,2.8,10.7,5.1,16.1
		c2.9-7,4.8-14.1,5.8-21.3h3.2c0.8,0,1.4,0.3,1.9,0.8c0.5,0.5,0.8,1.2,0.8,2.1C41.8,24.2,40.7,28.3,38.6,35z"/>
	<path d="M65.9,35.2c0,2.2-0.9,3.7-2.6,4.6c-1.8,0.9-4.7,1.3-8.8,1.3h-4c0.2,1.5,0.9,2.7,2.2,3.6
		c1.3,0.9,2.8,1.4,4.6,1.4c3.3,0,5.8-0.8,7.4-2.3H65v1.9c0,3.7-2.9,5.5-8.8,5.5c-3.2,0-5.9-1.1-8.3-3.4s-3.6-5.2-3.6-8.8
		c0-4,1.1-7.2,3.3-9.6c2.2-2.4,5.1-3.6,8.6-3.6c2.6,0,4.9,0.9,6.8,2.6C64.9,30.1,65.9,32.4,65.9,35.2z M60.2,34.5
		c0-1.2-0.4-2.1-1.2-2.7c-0.8-0.6-1.9-0.9-3.4-0.9S53,31.3,52,32.3s-1.4,2.2-1.5,3.7l0,0.8h2.7c2.8,0,4.7-0.2,5.6-0.5
		C59.7,35.9,60.2,35.3,60.2,34.5z"/>
	<path d="M82.5,47.2c0,2.4-1.3,3.6-4.1,3.6c-2.5,0-4.4-0.6-5.7-1.9c-1.3-1.3-2-3.2-2-5.6V18.2h1.7
		c1.4,0,2.5,0.4,3.2,1.1s1.1,1.7,1.1,2.9v20.4c0,1.2,0.3,2,0.9,2.5s1.7,0.7,3.2,0.7h1.6V47.2z"/>
	<path d="M103.8,34.1h-0.2c-0.4-0.8-1.2-1.4-2.4-1.8s-2.6-0.7-4.2-0.7c-1.8,0-3.3,0.6-4.6,1.9s-2,2.8-2,4.5
		c0,2.2,0.6,4,1.8,5.4c1.2,1.4,2.8,2,4.9,2c3.1,0,5.2-0.8,6.4-2.2h0.2V46c0,1.5-0.7,2.7-2,3.6c-1.3,0.9-3.1,1.4-5.2,1.4
		c-3.4,0-6.3-1.2-8.8-3.5c-2.4-2.3-3.7-5.2-3.7-8.6c0-3.6,1.2-6.6,3.6-9.1c2.4-2.5,5.6-3.7,9.5-3.7c1.9,0,3.5,0.5,4.7,1.5
		c1.2,1,1.9,2.2,1.9,3.7L103.8,34.1L103.8,34.1z"/>
	<path d="M107,38.9c0-3.8,1.1-7,3.2-9.4c2.1-2.5,5.1-3.7,8.8-3.7c3.5,0,6.3,1.2,8.4,3.6c2.1,2.4,3.1,5.3,3.1,8.7
		c0,3.8-1.1,6.9-3.2,9.4c-2.1,2.5-5.1,3.7-8.8,3.7c-3.5,0-6.3-1.2-8.4-3.6C108,45.2,107,42.3,107,38.9z M124.2,38.9
		c0-5.2-1.9-7.7-5.8-7.7c-1.7,0-3,0.6-3.9,1.9s-1.3,2.9-1.3,5c0,5.1,1.9,7.7,5.8,7.7c1.7,0,3-0.6,3.9-1.9
		C123.8,42.6,124.2,41,124.2,38.9z"/>
	<path d="M170.5,50.6H169c-1.6,0-2.8-0.4-3.5-1.1c-0.7-0.7-1.1-1.8-1.1-3.3v-9.4c0-1.9-0.4-3.4-1.2-4.3
		c-0.8-0.9-1.9-1.4-3.3-1.4c-1.3,0-2.3,0.4-3,1.3c-0.7,0.9-1.1,2.1-1.1,3.7v14.4h-1.6c-1.4,0-2.4-0.4-3.2-1.1
		c-0.8-0.8-1.2-1.9-1.2-3.3v-9.4c0-1.9-0.4-3.4-1.2-4.3c-0.8-0.9-1.9-1.4-3.3-1.4c-1.2,0-2.2,0.5-2.9,1.4s-1.1,2.2-1.1,3.8v14.3
		h-1.6c-1.3,0-2.3-0.4-3.1-1.2c-0.8-0.8-1.2-1.9-1.2-3.2v-9.4c0-3.4,0.9-6.1,2.7-8.1c1.8-2,4.5-2.9,8.1-2.9c3,0,5.5,1.3,7.4,3.8
		c0.7-1.1,1.7-2.1,2.9-2.7c1.2-0.7,2.6-1,4-1c2.9,0,5.4,0.9,7.2,2.7c1.9,1.8,2.8,4.3,2.8,7.6L170.5,50.6L170.5,50.6z"/>
	<path d="M196.8,35.2c0,2.2-0.9,3.7-2.6,4.6c-1.8,0.9-4.7,1.3-8.8,1.3h-4c0.2,1.5,0.9,2.7,2.2,3.6
		c1.3,0.9,2.8,1.4,4.6,1.4c3.3,0,5.8-0.8,7.4-2.3h0.2v1.9c0,3.7-2.9,5.5-8.8,5.5c-3.1,0-5.9-1.1-8.3-3.4c-2.4-2.3-3.6-5.2-3.6-8.8
		c0-4,1.1-7.2,3.3-9.6c2.2-2.4,5.1-3.6,8.6-3.6c2.6,0,4.9,0.9,6.8,2.6C195.9,30.1,196.8,32.4,196.8,35.2z M191.2,34.5
		c0-1.2-0.4-2.1-1.2-2.7c-0.8-0.6-1.9-0.9-3.4-0.9s-2.6,0.5-3.6,1.5c-0.9,1-1.4,2.2-1.5,3.7l0,0.8h2.7c2.8,0,4.7-0.2,5.6-0.5
		C190.7,35.9,191.2,35.3,191.2,34.5z"/>
</g>
<g fill="#ffffff">
	<path d="M223.2,21.7c0,0.8-0.4,1.6-1.1,2.3c-0.8,0.8-1.6,1.1-2.6,1.1h-5.7v25.4h-2.5c-1.1,0-2-0.4-2.7-1.1
		c-0.7-0.7-1-1.7-1-3.1V25.2h-8.9v-2c0-0.8,0.3-1.6,1-2.3c0.7-0.7,1.6-1.1,2.7-1.1h20.7V21.7z"/>
	<path d="M225.3,38.9c0-3.8,1.1-7,3.2-9.4c2.1-2.5,5.1-3.7,8.8-3.7c3.5,0,6.3,1.2,8.4,3.6c2.1,2.4,3.1,5.3,3.1,8.7
		c0,3.8-1.1,6.9-3.2,9.4c-2.1,2.5-5.1,3.7-8.8,3.7c-3.5,0-6.3-1.2-8.4-3.6C226.3,45.2,225.3,42.3,225.3,38.9z M242.5,38.9
		c0-5.2-1.9-7.7-5.8-7.7c-1.7,0-3,0.6-3.9,1.9c-0.9,1.3-1.4,2.9-1.4,5c0,5.1,1.9,7.7,5.8,7.7c1.7,0,3-0.6,3.9-1.9
		C242.1,42.6,242.5,41,242.5,38.9z"/>
	<path d="M274.9,39.7c0,7.6-3.5,11.4-10.6,11.4c-3.1,0-5.6-1-7.7-2.9c-2-2-3-4.7-3-8.1V26.3h1.1c3.3,0,5,1.4,5,4.3v8.9
		c0,2.1,0.4,3.7,1.4,4.7c0.9,1,2.1,1.5,3.6,1.5c1.3,0,2.3-0.5,3.1-1.4c0.8-1,1.1-2.4,1.1-4.4V26.3h1.1c3.3,0,5,1.4,5,4.3V39.7z"/>
	<path d="M294.7,32.2h-0.2c-1.2-0.5-2.4-0.7-3.5-0.7c-2.8,0-4.2,1.7-4.2,5.2v14h-1.7c-1.4,0-2.5-0.3-3.2-1
		c-0.8-0.7-1.2-1.6-1.2-2.9V35.6c0-2.7,0.7-4.9,2.2-6.8c1.5-1.8,3.7-2.7,6.7-2.7c1.7,0,3,0.4,3.8,1.2c0.8,0.8,1.2,1.7,1.2,2.8
		L294.7,32.2L294.7,32.2z"/>
</g>
<g style="fill: #ffffff; opacity: 0.6;">
	<path d="M8,1.2c0,0.1-0.1,0.1-0.2,0.2c-0.1,0-0.2,0-0.3,0c-0.3,0-0.7-0.1-1-0.1s-0.7-0.1-1-0.1c-0.3,0-0.5,0-0.7,0.1
		c-0.2,0-0.4,0.1-0.6,0.2C3.9,1.5,3.8,1.7,3.7,1.8C3.6,2,3.6,2.2,3.6,2.4c0,0.2,0.1,0.4,0.3,0.6C4,3.2,4.2,3.3,4.5,3.5
		C4.8,3.6,5,3.7,5.3,3.9C5.6,4,5.9,4.1,6.2,4.3c0.2,0.1,0.4,0.3,0.5,0.4C6.9,4.8,7.1,5,7.2,5.2s0.2,0.4,0.3,0.7
		c0.1,0.3,0.1,0.6,0.1,1c0,0.2,0,0.4,0,0.7S7.5,8.2,7.4,8.5c-0.1,0.3-0.2,0.6-0.3,1c-0.1,0.3-0.3,0.7-0.4,1
		c-0.1,0.2-0.3,0.5-0.5,0.7s-0.4,0.4-0.7,0.6c-0.3,0.2-0.6,0.3-1,0.4s-0.8,0.1-1.3,0.1c-0.6,0-1-0.1-1.4-0.2s-0.6-0.3-0.9-0.6
		c-0.2-0.3-0.4-0.6-0.4-0.9S0.4,9.8,0.4,9.4c0-0.4,0-0.8,0.1-1.2s0.2-0.8,0.3-1.1C0.8,6.9,0.9,6.6,1,6.3s0.3-0.5,0.4-0.8
		S1.8,5,2.1,4.8S2.6,4.4,3,4.2C2.7,4.1,2.6,3.9,2.4,3.6C2.3,3.4,2.2,3.1,2.2,2.8c0-0.5,0.1-0.9,0.2-1.2s0.4-0.6,0.7-0.9
		s0.6-0.4,1-0.5C4.5,0.1,4.9,0,5.4,0C5.6,0,5.7,0,6,0s0.5,0,0.7,0.1c0.2,0,0.5,0.1,0.7,0.1C7.7,0.2,7.9,0.3,8,0.4
		c0.1,0,0.1,0.1,0.1,0.2c0,0.1,0,0.1,0,0.2L8,1.2z M4.3,4.9C3.7,5,3.2,5.2,2.9,5.7C2.5,6.1,2.2,6.7,2,7.3C1.9,7.6,1.9,8,1.8,8.3
		C1.7,8.7,1.7,9,1.7,9.3c0,0.3,0,0.5,0.1,0.7s0.1,0.4,0.3,0.5c0.1,0.1,0.3,0.3,0.5,0.3C2.8,11,3,11.1,3.4,11.1
		c0.8,0,1.4-0.2,1.8-0.6c0.4-0.4,0.7-1,0.9-1.8C6.2,8.3,6.2,8,6.3,7.5c0.1-0.4,0-0.8-0.1-1.2C6.1,6,5.9,5.7,5.6,5.4
		C5.3,5.1,4.9,4.9,4.3,4.9z"/>
	<path d="M8.9,9.8c0-0.4,0-0.8,0.1-1.1c0.1-0.4,0.2-0.8,0.3-1.1c0.1-0.4,0.2-0.8,0.4-1.2S10,5.4,10.4,5
		c0.3-0.4,0.8-0.7,1.3-1c0.5-0.3,1.2-0.4,2-0.4c0.4,0,0.7,0,1,0.1s0.6,0.2,0.8,0.4s0.4,0.4,0.6,0.6c0.1,0.2,0.2,0.5,0.2,0.9
		c0,0.5-0.1,0.9-0.3,1.2c-0.2,0.4-0.5,0.7-0.8,0.9c-0.3,0.2-0.7,0.5-1.1,0.6c-0.4,0.2-0.9,0.3-1.3,0.4S11.9,8.9,11.4,9
		C11,9,10.6,9,10.3,9c-0.1,0.3-0.1,0.6-0.1,0.8c0,0.3,0.1,0.5,0.2,0.7c0.1,0.2,0.3,0.3,0.5,0.3C11,11,11.2,11,11.5,11
		c0.2,0,0.5,0,0.7,0c0.1,0,0.3,0,0.5,0c0.2,0,0.4,0,0.6,0s0.4,0,0.7-0.1c0.2,0,0.4,0,0.6-0.1c0.1,0,0.2,0,0.2,0
		c0.1,0,0.1,0.1,0.1,0.2v0.4c0,0.2-0.1,0.3-0.3,0.4c-0.2,0.1-0.4,0.1-0.7,0.2c-0.2,0.1-0.5,0.1-0.7,0.1c-0.3,0-0.5,0-0.8,0.1
		c-0.2,0-0.5,0-0.7,0c-0.4,0-0.8,0-1.2-0.1c-0.4-0.1-0.7-0.2-0.9-0.4c-0.2-0.2-0.4-0.4-0.6-0.7C8.9,10.7,8.9,10.3,8.9,9.8z M15,5.9
		c0-0.4-0.1-0.7-0.4-0.8s-0.6-0.2-1-0.2c-0.5,0-1,0.1-1.3,0.3s-0.6,0.4-0.8,0.7C11.2,6,11,6.3,10.9,6.6c-0.1,0.3-0.2,0.5-0.3,0.8
		L10.5,8c0.2,0,0.5,0,0.8,0s0.6-0.1,1-0.1c0.3-0.1,0.7-0.1,1-0.2s0.6-0.2,0.9-0.4s0.5-0.3,0.6-0.6C14.9,6.4,15,6.2,15,5.9z"/>
	<path d="M21,3.6c0.4,0,0.7,0,1,0.1s0.6,0.2,0.9,0.3c0.3,0.1,0.5,0.3,0.6,0.6s0.2,0.5,0.2,0.9c0,0.2,0,0.3-0.1,0.5
		c0,0.2-0.1,0.4-0.2,0.6S23.1,7,22.9,7.1S22.4,7.4,22,7.6v0c0.4,0.1,0.6,0.3,0.8,0.6c0.2,0.3,0.3,0.6,0.3,1c0,0.5-0.1,1-0.3,1.4
		c-0.2,0.4-0.5,0.7-0.8,0.9c-0.3,0.2-0.7,0.4-1.2,0.5c-0.5,0.1-0.9,0.2-1.5,0.2c-0.1,0-0.3,0-0.5,0c-0.2,0-0.5,0-0.7-0.1
		c-0.3,0-0.5-0.1-0.8-0.1c-0.3-0.1-0.5-0.1-0.6-0.2c-0.1-0.1-0.1-0.1-0.1-0.2c0-0.1,0-0.1,0-0.2l0.2-0.4c0-0.1,0.1-0.2,0.1-0.2
		c0,0,0.1,0,0.3,0c0.4,0.1,0.7,0.1,1.1,0.1c0.4,0,0.7,0,1.1,0c0.3,0,0.6,0,0.9-0.1c0.3-0.1,0.6-0.2,0.8-0.3s0.4-0.3,0.5-0.6
		s0.2-0.5,0.2-0.9c0-0.2,0-0.4-0.1-0.5s-0.2-0.3-0.4-0.3c-0.2-0.1-0.3-0.1-0.5-0.2s-0.4-0.1-0.6-0.1h-1c-0.1,0-0.1,0-0.2-0.1
		c0,0,0-0.1,0-0.2l0.1-0.5c0-0.2,0.1-0.3,0.2-0.3H20c0.2,0,0.5,0,0.7-0.1s0.5-0.1,0.7-0.2c0.2-0.1,0.4-0.2,0.6-0.4s0.2-0.4,0.2-0.7
		c0-0.2-0.1-0.3-0.2-0.4S22,5,21.8,4.9s-0.3-0.1-0.5-0.1c-0.2,0-0.4,0-0.6,0c-0.1,0-0.3,0-0.5,0s-0.4,0-0.6,0c-0.2,0-0.4,0-0.6,0
		s-0.3,0-0.4,0c-0.2,0-0.3,0-0.3,0s-0.1-0.1-0.1-0.2l0-0.4c0-0.1,0-0.1,0.1-0.2S18.3,4,18.4,4c0.2-0.1,0.5-0.1,0.9-0.2
		S20.3,3.6,21,3.6z"/>
	<path d="M37.6,1.8c0,0.2-0.1,0.2-0.3,0.2h-4.6l-1,2.9l3.2,0.5c0.3,0,0.5,0.1,0.8,0.2c0.2,0.1,0.5,0.2,0.7,0.4
		s0.3,0.4,0.4,0.6C36.9,6.9,37,7.2,37,7.5c0,0.8-0.1,1.5-0.4,2.1c-0.3,0.6-0.6,1.1-1.1,1.5s-1,0.7-1.6,0.9s-1.3,0.3-2,0.3
		c-0.2,0-0.4,0-0.6,0s-0.6,0-0.9-0.1c-0.3,0-0.6-0.1-0.9-0.1c-0.3-0.1-0.5-0.1-0.7-0.2c-0.1,0-0.1-0.1-0.1-0.2s0-0.1,0-0.2l0.2-0.4
		c0-0.1,0.1-0.1,0.1-0.2c0.1-0.1,0.1-0.1,0.3,0c0.4,0.1,0.8,0.1,1.3,0.2c0.5,0.1,1,0.1,1.5,0.1c0.5,0,0.9-0.1,1.3-0.2
		s0.8-0.3,1.1-0.6c0.3-0.3,0.5-0.6,0.7-1c0.2-0.4,0.3-0.9,0.3-1.4c0-0.4-0.1-0.6-0.4-0.8s-0.6-0.3-1-0.4L30.5,6
		c-0.3-0.1-0.4-0.2-0.3-0.5l1.5-4.4c0-0.1,0.1-0.2,0.1-0.2c0.1,0,0.1,0,0.2,0h5.4c0.1,0,0.2,0.1,0.2,0.2L37.6,1.8z"/>
	<path d="M51.3,12.1h-0.5c-0.1,0-0.2,0-0.3-0.1c-0.1-0.1-0.1-0.1-0.1-0.3l1-5.2c-0.1,0.1-0.1,0.1-0.2,0.2
		s-0.1,0.1-0.2,0.2l-2.8,3.6c-0.1,0.2-0.3,0.2-0.4,0.2h-0.4c-0.2,0-0.3-0.1-0.4-0.2l-1.5-3.8l-0.2-0.4l-1,5.4c0,0.2-0.2,0.3-0.4,0.3
		h-0.5c-0.2,0-0.4-0.1-0.3-0.3l1.5-7.6c0-0.2,0.2-0.3,0.4-0.3h0.5c0.1,0,0.2,0,0.3,0.1c0.1,0,0.1,0.1,0.1,0.2l1.6,4.1
		c0.1,0.2,0.1,0.4,0.2,0.5s0.1,0.3,0.2,0.5c0.1-0.2,0.3-0.4,0.4-0.6c0.1-0.2,0.3-0.4,0.4-0.5l3.2-4.1C51.9,4,52,3.9,52,3.9
		c0.1-0.1,0.2-0.1,0.3-0.1h0.6c0.2,0,0.3,0.1,0.3,0.3l-1.5,7.6C51.6,12,51.5,12.1,51.3,12.1z"/>
	<path d="M60.6,11.8c0,0.2-0.1,0.3-0.3,0.3h-0.7c-0.2,0-0.3-0.1-0.2-0.3l0.1-0.6c0,0,0,0,0,0c-0.2,0.1-0.4,0.2-0.6,0.3
		s-0.5,0.2-0.8,0.3s-0.6,0.2-0.9,0.3c-0.3,0.1-0.6,0.1-0.9,0.1c-0.6,0-1-0.1-1.3-0.2c-0.3-0.2-0.5-0.4-0.6-0.7
		c-0.1-0.3-0.2-0.6-0.1-1s0.1-0.8,0.2-1.3l1-5c0-0.2,0.2-0.3,0.4-0.3h0.7c0.2,0,0.3,0.1,0.2,0.3l-1,5c-0.1,0.4-0.1,0.7-0.1,1
		s0,0.4,0.1,0.6s0.2,0.2,0.4,0.3c0.2,0.1,0.4,0.1,0.7,0.1c0.2,0,0.5,0,0.7-0.1c0.3-0.1,0.6-0.2,0.9-0.3s0.6-0.2,0.8-0.3
		s0.5-0.2,0.6-0.3l1.2-6c0-0.2,0.2-0.3,0.4-0.3h0.7c0.2,0,0.3,0.1,0.2,0.3L60.6,11.8z"/>
	<path d="M69,12.1h-0.5c-0.3,0-0.4-0.1-0.4-0.3l0.7-3.5h-4.2l-0.7,3.5c0,0.2-0.2,0.3-0.4,0.3H63c-0.3,0-0.4-0.1-0.3-0.3
		l1.5-7.6c0-0.1,0.1-0.2,0.1-0.3c0.1-0.1,0.2-0.1,0.3-0.1h0.5c0.1,0,0.2,0,0.3,0.1s0.1,0.1,0,0.3l-0.6,3h4.2l0.6-3
		c0-0.1,0.1-0.2,0.2-0.3c0.1-0.1,0.2-0.1,0.3-0.1h0.5c0.1,0,0.2,0,0.3,0.1c0.1,0.1,0.1,0.1,0,0.3l-1.5,7.6
		C69.4,12,69.2,12.1,69,12.1z"/>
	<path d="M73.6,14.8c-0.1,0.1-0.1,0.1-0.2,0.2s-0.1,0.1-0.2,0.1h-0.8c-0.1,0-0.1,0-0.1-0.1c0-0.1,0-0.1,0-0.2l1.5-2.7
		l-1.4-8c0-0.1,0-0.1,0-0.2s0.1-0.1,0.2-0.1h0.8c0.1,0,0.1,0,0.2,0.1c0,0,0,0.1,0.1,0.2l0.8,5l0.2,1.4c0-0.1,0.1-0.2,0.2-0.3
		c0.1-0.2,0.2-0.3,0.3-0.5c0.1-0.2,0.2-0.4,0.3-0.6l2.7-5c0.1-0.1,0.2-0.2,0.3-0.2h1c0.2,0,0.2,0.1,0.1,0.3L73.6,14.8z"/>
	<path d="M91.2,11.8c0,0.2-0.2,0.3-0.4,0.3h-0.7c-0.2,0-0.3-0.1-0.2-0.3l1-5.1C91,6,91,5.5,90.9,5.2s-0.5-0.4-1-0.4
		c-0.2,0-0.4,0-0.7,0.1s-0.5,0.2-0.8,0.3s-0.5,0.2-0.8,0.3S87.2,5.7,87,5.8c0,0,0,0.1,0,0.2c0,0.1,0,0.2,0,0.3s0,0.2,0,0.3
		c0,0.1,0,0.2,0,0.2l-1,5.1c0,0.2-0.2,0.3-0.4,0.3h-0.7c-0.2,0-0.2-0.1-0.2-0.3l1-5.2c0.1-0.6,0.1-1,0-1.3c-0.1-0.3-0.4-0.5-0.9-0.5
		c-0.2,0-0.4,0-0.6,0.1C83.8,5,83.6,5,83.3,5.1c-0.3,0.1-0.5,0.2-0.8,0.3S82,5.7,81.8,5.8l-1.2,6c0,0.2-0.1,0.3-0.3,0.3h-0.7
		c-0.2,0-0.3-0.1-0.2-0.3l1.5-7.7c0-0.2,0.2-0.3,0.3-0.3h0.7c0.2,0,0.3,0.1,0.2,0.3L82,4.7h0c0.2-0.1,0.4-0.2,0.6-0.4
		c0.2-0.1,0.5-0.2,0.7-0.3c0.3-0.1,0.5-0.2,0.8-0.3c0.3-0.1,0.6-0.1,0.8-0.1c0.6,0,1.1,0.1,1.4,0.3c0.3,0.2,0.5,0.5,0.6,0.9
		c0.5-0.3,1-0.6,1.6-0.8s1.1-0.4,1.7-0.4c0.5,0,0.9,0.1,1.2,0.2c0.3,0.1,0.5,0.4,0.6,0.6c0.1,0.3,0.2,0.6,0.2,1
		c0,0.4-0.1,0.8-0.2,1.2L91.2,11.8z"/>
	<path d="M109.5,11.8c0,0.2-0.2,0.3-0.4,0.3h-0.7c-0.2,0-0.3-0.1-0.2-0.3l1-5.1c0.1-0.7,0.1-1.2,0-1.5s-0.5-0.4-1-0.4
		c-0.2,0-0.4,0-0.7,0.1s-0.5,0.2-0.8,0.3s-0.5,0.2-0.8,0.3s-0.5,0.2-0.6,0.3c0,0,0,0.1,0,0.2c0,0.1,0,0.2,0,0.3s0,0.2,0,0.3
		c0,0.1,0,0.2,0,0.2l-1,5.1c0,0.2-0.2,0.3-0.4,0.3h-0.7c-0.2,0-0.2-0.1-0.2-0.3l1-5.2c0.1-0.6,0.1-1,0-1.3c-0.1-0.3-0.4-0.5-0.9-0.5
		c-0.2,0-0.4,0-0.6,0.1c-0.2,0.1-0.5,0.1-0.7,0.2c-0.3,0.1-0.5,0.2-0.8,0.3s-0.5,0.2-0.7,0.3l-1.2,6c0,0.2-0.1,0.3-0.3,0.3h-0.7
		c-0.2,0-0.3-0.1-0.2-0.3l1.5-7.7c0-0.2,0.2-0.3,0.3-0.3h0.7c0.2,0,0.3,0.1,0.2,0.3l-0.1,0.6h0c0.2-0.1,0.4-0.2,0.6-0.4
		c0.2-0.1,0.5-0.2,0.7-0.3c0.3-0.1,0.5-0.2,0.8-0.3c0.3-0.1,0.6-0.1,0.8-0.1c0.6,0,1.1,0.1,1.4,0.3c0.3,0.2,0.5,0.5,0.6,0.9
		c0.5-0.3,1-0.6,1.6-0.8s1.1-0.4,1.7-0.4c0.5,0,0.9,0.1,1.2,0.2c0.3,0.1,0.5,0.4,0.6,0.6c0.1,0.3,0.2,0.6,0.2,1
		c0,0.4-0.1,0.8-0.2,1.2L109.5,11.8z"/>
	<path d="M113.6,14.8c-0.1,0.1-0.1,0.1-0.2,0.2s-0.1,0.1-0.2,0.1h-0.8c-0.1,0-0.1,0-0.1-0.1c0-0.1,0-0.1,0-0.2l1.5-2.7
		l-1.4-8c0-0.1,0-0.1,0-0.2s0.1-0.1,0.2-0.1h0.8c0.1,0,0.1,0,0.2,0.1c0,0,0,0.1,0.1,0.2l0.8,5l0.2,1.4c0-0.1,0.1-0.2,0.2-0.3
		c0.1-0.2,0.2-0.3,0.3-0.5c0.1-0.2,0.2-0.4,0.3-0.6l2.7-5c0.1-0.1,0.2-0.2,0.3-0.2h1c0.2,0,0.2,0.1,0.1,0.3L113.6,14.8z"/>
	<path d="M127.1,8.6c-0.1,0.6-0.3,1.1-0.5,1.6s-0.4,0.8-0.7,1.1c-0.3,0.3-0.7,0.5-1.1,0.7c-0.4,0.2-1,0.2-1.6,0.2
		c-0.3,0-0.7,0-1.1-0.1s-0.8-0.2-1.3-0.4l0,0l-0.6,3c0,0.1-0.1,0.2-0.1,0.2c0,0.1-0.1,0.1-0.3,0.1h-0.7c-0.1,0-0.2,0-0.2-0.1
		c0,0,0-0.1,0-0.3L121,4.1c0-0.2,0.2-0.3,0.3-0.3h0.7c0.2,0,0.3,0.1,0.2,0.3l-0.1,0.6c0,0,0,0,0,0c0.1-0.1,0.3-0.2,0.6-0.3
		c0.2-0.1,0.5-0.2,0.8-0.4s0.6-0.2,0.9-0.3c0.3-0.1,0.6-0.1,0.9-0.1c0.8,0,1.3,0.2,1.6,0.6c0.3,0.4,0.5,1,0.5,1.8c0,0.2,0,0.4,0,0.6
		c0,0.2,0,0.4-0.1,0.7s-0.1,0.5-0.1,0.7C127.2,8.2,127.1,8.4,127.1,8.6z M126.1,6.2c0-0.5-0.1-0.9-0.3-1.1c-0.2-0.2-0.5-0.3-0.9-0.3
		c-0.2,0-0.4,0-0.7,0.1c-0.3,0.1-0.6,0.2-0.8,0.3s-0.6,0.2-0.8,0.3c-0.2,0.1-0.5,0.2-0.6,0.3l-1,4.9c0.4,0.1,0.8,0.2,1.2,0.3
		c0.4,0.1,0.8,0.1,1.1,0.1c0.3,0,0.6,0,0.8-0.1s0.5-0.2,0.6-0.4c0.2-0.2,0.3-0.4,0.5-0.7s0.3-0.7,0.4-1.1c0-0.2,0.1-0.4,0.1-0.6
		c0-0.2,0.1-0.4,0.1-0.7c0-0.2,0.1-0.4,0.1-0.6C126.1,6.5,126.1,6.3,126.1,6.2z"/>
	<path d="M134.8,11.8c0,0.2-0.1,0.3-0.3,0.3h-0.7c-0.2,0-0.3-0.1-0.2-0.3l0.1-0.6c0,0,0,0,0,0c-0.2,0.1-0.4,0.2-0.6,0.3
		s-0.5,0.2-0.8,0.3s-0.6,0.2-0.9,0.3c-0.3,0.1-0.6,0.1-0.9,0.1c-0.6,0-1-0.1-1.3-0.2c-0.3-0.2-0.5-0.4-0.6-0.7
		c-0.1-0.3-0.2-0.6-0.1-1s0.1-0.8,0.2-1.3l1-5c0-0.2,0.2-0.3,0.4-0.3h0.7c0.2,0,0.3,0.1,0.2,0.3l-1,5c-0.1,0.4-0.1,0.7-0.1,1
		s0,0.4,0.1,0.6c0.1,0.1,0.2,0.2,0.4,0.3c0.2,0.1,0.4,0.1,0.7,0.1c0.2,0,0.4,0,0.7-0.1s0.6-0.2,0.9-0.3s0.6-0.2,0.8-0.3
		s0.5-0.2,0.6-0.3l1.2-6c0-0.2,0.2-0.3,0.4-0.3h0.7c0.2,0,0.3,0.1,0.2,0.3L134.8,11.8z"/>
	<path d="M144,4.8c0,0.1-0.1,0.1-0.2,0.2s-0.2,0-0.3,0c-0.3,0-0.7-0.1-1.1-0.1c-0.4,0-0.8-0.1-1.1-0.1
		c-0.4,0-0.7,0.1-1,0.2s-0.5,0.3-0.7,0.5c-0.2,0.2-0.4,0.6-0.5,0.9c-0.1,0.4-0.3,0.9-0.4,1.5c-0.1,0.3-0.1,0.6-0.1,0.9
		c0,0.3-0.1,0.5-0.1,0.7c0,0.6,0.1,1,0.4,1.2s0.7,0.3,1.2,0.3c0.1,0,0.3,0,0.5,0c0.2,0,0.4,0,0.6,0s0.4,0,0.7-0.1s0.4,0,0.6-0.1
		c0.1,0,0.2,0,0.2,0c0.1,0,0.1,0.1,0.1,0.2v0.4c0,0.2-0.1,0.3-0.3,0.4c-0.4,0.1-0.8,0.3-1.3,0.3s-1,0.1-1.4,0.1
		c-0.6,0-1-0.1-1.4-0.2s-0.6-0.3-0.9-0.6c-0.2-0.2-0.4-0.5-0.4-0.8c-0.1-0.3-0.1-0.6-0.1-0.9c0-0.3,0-0.6,0.1-1c0-0.4,0.1-0.7,0.2-1
		c0.1-0.5,0.2-1.1,0.4-1.6s0.4-0.9,0.7-1.3c0.3-0.4,0.7-0.7,1.2-0.9s1.1-0.3,1.9-0.3c0.2,0,0.4,0,0.6,0c0.2,0,0.5,0,0.7,0.1
		c0.2,0,0.5,0.1,0.7,0.1c0.2,0.1,0.4,0.1,0.6,0.2c0.1,0,0.1,0.1,0.1,0.2s0,0.1,0,0.2L144,4.8z"/>
	<path d="M155.8,11.8c0,0.2-0.2,0.3-0.4,0.3h-0.7c-0.2,0-0.3-0.1-0.2-0.3l1-5.1c0.1-0.7,0.1-1.2,0-1.5
		c-0.1-0.3-0.4-0.4-1-0.4c-0.2,0-0.4,0-0.7,0.1s-0.5,0.2-0.8,0.3c-0.3,0.1-0.5,0.2-0.8,0.3c-0.2,0.1-0.4,0.2-0.6,0.3
		c0,0,0,0.1,0,0.2c0,0.1,0,0.2,0,0.3c0,0.1,0,0.2,0,0.3c0,0.1,0,0.2,0,0.2l-1,5.1c0,0.2-0.2,0.3-0.4,0.3h-0.7
		c-0.2,0-0.2-0.1-0.2-0.3l1-5.2c0.1-0.6,0.1-1,0-1.3c-0.1-0.3-0.4-0.5-0.9-0.5c-0.2,0-0.4,0-0.6,0.1c-0.2,0.1-0.5,0.1-0.7,0.2
		s-0.5,0.2-0.8,0.3s-0.5,0.2-0.7,0.3l-1.2,6c0,0.2-0.1,0.3-0.3,0.3h-0.7c-0.2,0-0.3-0.1-0.2-0.3l1.5-7.7c0-0.2,0.2-0.3,0.3-0.3h0.7
		c0.2,0,0.3,0.1,0.2,0.3l-0.1,0.6h0c0.2-0.1,0.4-0.2,0.6-0.4c0.2-0.1,0.5-0.2,0.7-0.3c0.3-0.1,0.5-0.2,0.8-0.3
		c0.3-0.1,0.6-0.1,0.8-0.1c0.6,0,1.1,0.1,1.4,0.3c0.3,0.2,0.5,0.5,0.6,0.9c0.5-0.3,1-0.6,1.6-0.8s1.1-0.4,1.7-0.4
		c0.5,0,0.9,0.1,1.2,0.2c0.3,0.1,0.5,0.4,0.6,0.6c0.1,0.3,0.2,0.6,0.2,1c0,0.4-0.1,0.8-0.2,1.2L155.8,11.8z"/>
</g>
</svg>
